Simulation
nRows=31
nColumns=15
endheader
time  TH_x TH_y TH_z SC_y  SC_z  SC_x  AC_y  AC_z  AC_x  GH_y  GH_z  GH_yy  EL_x  PS_y
1.4749999999999996  0.000000  0.000000  0.000000  -35.607673044824715  6.444138001765273  20.943292181795588  47.76431935147236  23.323358372082115  14.789703626280334  -16.999108307353893  33.43461493049448  -2.151209226113562  23.559776721147983  120.000000
1.5044999999999995  0.000000  0.000000  0.000000  -35.71646404032304  6.399204560328731  21.61595446313312  48.009666385412324  22.943399247904516  14.584322669029193  -17.303733361264875  33.530359022017436  -1.8222745398278568  23.620165374638947  120.000000
1.5339999999999996  0.000000  0.000000  0.000000  -35.740277978166446  6.349535355298071  22.188255612994993  48.213224219206  22.576850341992014  14.270881244575257  -17.43257182903796  33.48280470136888  -1.5372223720104998  23.638816495740304  120.000000
1.5634999999999994  0.000000  0.000000  0.000000  -35.67262727313679  6.297167479484485  22.660077417352312  48.371780763193904  22.218662986993994  13.827255911560577  -17.380960637638882  33.28647118471695  -1.30530562620015  23.61980626646091  120.000000
1.5929999999999995  0.000000  0.000000  0.000000  -35.518144489869016  6.241627233725634  23.032875934322874  48.484079971262965  21.866998795672462  13.23725607280679  -17.1438541325182  32.932618008231714  -1.1514155213492325  23.566690549847973  120.000000
1.6224999999999996  0.000000  0.000000  0.000000  -35.294147818730835  6.182250378903678  23.308191457252157  48.55468134064831  21.523054401331976  12.494301146043973  -16.71569563003731  32.4105866373276  -1.114991164131897  23.483378818206436  120.000000
1.6519999999999995  0.000000  0.000000  0.000000  -35.03055412227482  6.1226105311287276  23.48254624241955  48.59968648425256  21.18969314893664  11.604336062443686  -16.090004716386733  31.712456277219523  -1.2446390596665418  23.37522929339048  120.000000
1.6814999999999996  0.000000  0.000000  0.000000  -34.76672363558309  6.073770906220018  23.5411489391566  48.65048759003292  20.867936796711984  10.588765658903148  -15.259026103416586  30.840792266066398  -1.5892765039287147  23.24937061817716  120.000000
1.7109999999999994  0.000000  0.000000  0.000000  -34.54391185592964  6.0512783502551555  23.45528605785698  48.74979522834267  20.55129352075245  9.486663933274395  -14.213888376295195  29.817453037669896  -2.1863861681882346  23.11438409874209  120.000000
1.7404999999999995  0.000000  0.000000  0.000000  -34.39542645112975  6.065762091774674  23.183741845379693  48.93946075380507  20.222100171043863  8.356492423939432  -12.94619024459743  28.690047191658962  -3.049811505526503  22.978890097582255  120.000000
1.7699999999999996  0.000000  0.000000  0.000000  -34.337967338720304  6.113791710830307  22.677749991801903  49.24363300467923  19.854481878604666  7.275425785471467  -11.452827357263407  27.531093741711395  -4.160650978962768  22.848679413737056  120.000000
1.7994999999999994  0.000000  0.000000  0.000000  -34.366264645108735  6.176073451223612  21.888212223445514  49.65627536448894  19.424164002555933  6.329428989026042  -9.744116987968157  26.427778115517317  -5.465055652750137  22.72277335283114  120.000000
1.8289999999999995  0.000000  0.000000  0.000000  -34.45372961593722  6.2233739386245865  20.774852022304835  50.13799686402611  18.920591082854415  5.596154912974703  -7.850819965859465  25.462827813680224  -6.878516960696954  22.59071930204775  120.000000
1.8584999999999994  0.000000  0.000000  0.000000  -34.55876859789984  6.226576867250869  19.3142536886008  50.62335503075978  18.356101409057256  5.130321986032607  -5.825268243639108  24.692881313457196  -8.296041954442106  22.433613264806187  120.000000
1.8879999999999995  0.000000  0.000000  0.000000  -34.63311231412855  6.166157193924734  17.50844602750102  51.03590959613901  17.76573531253704  4.954956995476059  -3.7350057977469926  24.132390239958916  -9.605973961152523  22.22959587677999  120.000000
1.9174999999999995  0.000000  0.000000  0.000000  -34.630124632086726  6.0372020979414796  15.387832252704007  51.30586373990428  17.19958571820203  5.061761936225257  -1.6518003759458515  23.750158530553055  -10.705300430367767  21.96212628075538  120.000000
1.9469999999999994  0.000000  0.000000  0.000000  -34.51214680766763  5.8494655262979975  13.009017214389413  51.38507138418584  16.708448739884915  5.417864309849636  0.3597102994524265  23.480944673882643  -11.513884042609513  21.626219547570596  120.000000
1.9764999999999995  0.000000  0.000000  0.000000  -34.255556482626716  5.6231292734296225  10.457264950747494  51.25546009253769  16.324226920717006  5.970195520005226  2.249888405472287  23.245005478267316  -11.984978467979067  21.23038305107863  120.000000
2.0059999999999993  0.000000  0.000000  0.000000  -33.85403605441021  5.382156378051082  7.836732839138543  50.92922741990402  16.053445102054468  6.654989016778561  3.9872507823490193  22.968787757182568  -12.11012849958483  20.79424978753505  120.000000
2.0354999999999994  0.000000  0.000000  0.000000  -33.31960077607391  5.14822028749133  5.2511370543407905  50.442241184477474  15.883548712302337  7.410350507610055  5.557886224501713  22.599286545703535  -11.917578883596843  20.34371329034052  120.000000
2.0649999999999995  0.000000  0.000000  0.000000  -32.6809869059925  4.935695064377352  2.7861149593949768  49.845229280942974  15.793436306614032  8.18506820265676  6.962357912483623  22.10859961653233  -11.465046380495814  19.905793531154924  120.000000
2.0944999999999996  0.000000  0.000000  0.000000  -31.98010572300359  4.748823315549806  0.4963114160216618  49.19401364075513  15.764609274910995  8.945131407766151  8.212442678548316  21.4900612953729  -10.827774159961058  19.50401412878803  120.000000
2.123999999999999  0.000000  0.000000  0.000000  -31.265050823297816  4.583091633192679  -1.591416572209763  48.54088713013798  15.782968336504958  9.67097291412516  9.328037571801614  20.75003818670836  -10.084664228413247  19.15531046302875  120.000000
2.1534999999999993  0.000000  0.000000  0.000000  -30.5817639442585  4.429306069099813  -3.4681530270070002  47.927472270030975  15.837191565517534  10.351258800683125  10.33563180677958  19.90112558100871  -9.305330190009775  18.868335958274194  120.000000
2.1829999999999994  0.000000  0.000000  0.000000  -29.966509599936465  4.278686156203291  -5.13767904402469  47.38025399718751  15.919392922035595  10.980316318255541  11.26746499443429  18.958866475653668  -8.54012857146532  18.643142724780045  120.000000
2.2124999999999995  0.000000  0.000000  0.000000  -29.439869474875547  4.127176088147928  -6.611558246945395  46.908955061796476  16.02356875646411  11.555897597035129  12.161343761771725  17.940458122372604  -7.814654611186582  18.472070803075933  120.000000
2.2419999999999995  0.000000  0.000000  0.000000  -29.004803046013  3.976899442037089  -7.904794837106389  46.5086732879281  16.143837624115985  12.07726788803753  13.05859838423987  16.863844725219927  -7.130460028377535  18.341942894603477  120.000000
2.271499999999999  0.000000  0.000000  0.000000  -28.64947211113166  3.8349315145347838  -9.033038270229023  46.16500251155581  16.273858566870885  12.544291210536388  14.000185972465394  15.746822083189034  -6.4723718801514  18.237783653958054  120.000000
2.3009999999999993  0.000000  0.000000  0.000000  -28.352898188671123  3.7110550561081563  -10.010922971818578  45.86110698359665  16.406591302234016  12.957659119331872  15.021031087532384  14.606178461598748  -5.818959841315311  18.147082318733347  120.000000
2.3304999999999993  0.000000  0.000000  0.000000  -28.091587323654792  3.6151164953642687  -10.85175677517339  45.58469203811162  16.53502633809053  13.32002732182557  16.14414831707831  13.45689568606475  -5.153943131860605  18.063328531236508  120.000000
2.3599999999999994  0.000000  0.000000  0.000000  -27.84589776840099  3.553449393675649  -11.568021042459545  45.33235640031412  16.653325192442544  13.636519378488039  17.374964653003847  12.31278759712413  -4.475243833990036  17.987783633687425  120.000000
